<?xml version="1.0" encoding="UTF-8"?>
<!DOCTYPE svg PUBLIC "-//W3C//DTD SVG 1.1//EN" "http://www.w3.org/Graphics/SVG/1.1/DTD/svg11.dtd">
<svg version="1.2" width="105mm" height="148mm" viewBox="0 0 10500 14800" preserveAspectRatio="xMidYMid" fill-rule="evenodd" stroke-width="28.222" stroke-linejoin="round" xmlns="http://www.w3.org/2000/svg" xmlns:ooo="http://xml.openoffice.org/svg/export" xmlns:xlink="http://www.w3.org/1999/xlink" xmlns:presentation="http://sun.com/xmlns/staroffice/presentation" xmlns:smil="http://www.w3.org/2001/SMIL20/" xmlns:anim="urn:oasis:names:tc:opendocument:xmlns:animation:1.0" xmlns:svg="urn:oasis:names:tc:opendocument:xmlns:svg-compatible:1.0" xml:space="preserve">
 <defs class="ClipPathGroup">
  <clipPath id="presentation_clip_path" clipPathUnits="userSpaceOnUse">
   <rect x="0" y="0" width="10500" height="14800"/>
  </clipPath>
  <clipPath id="presentation_clip_path_shrink" clipPathUnits="userSpaceOnUse">
   <rect x="10" y="14" width="10479" height="14771"/>
  </clipPath>
 </defs>
 <defs class="TextShapeIndex">
  <g ooo:slide="id1" ooo:id-list="id3 id4 id5"/>
 </defs>
 <defs class="EmbeddedBulletChars">
  <g id="bullet-char-template-57356" transform="scale(0.00048828125,-0.00048828125)">
   <path d="M 580,1141 L 1163,571 580,0 -4,571 580,1141 Z"/>
  </g>
  <g id="bullet-char-template-57354" transform="scale(0.00048828125,-0.00048828125)">
   <path d="M 8,1128 L 1137,1128 1137,0 8,0 8,1128 Z"/>
  </g>
  <g id="bullet-char-template-10146" transform="scale(0.00048828125,-0.00048828125)">
   <path d="M 174,0 L 602,739 174,1481 1456,739 174,0 Z M 1358,739 L 309,1346 659,739 1358,739 Z"/>
  </g>
  <g id="bullet-char-template-10132" transform="scale(0.00048828125,-0.00048828125)">
   <path d="M 2015,739 L 1276,0 717,0 1260,543 174,543 174,936 1260,936 717,1481 1274,1481 2015,739 Z"/>
  </g>
  <g id="bullet-char-template-10007" transform="scale(0.00048828125,-0.00048828125)">
   <path d="M 0,-2 C -7,14 -16,27 -25,37 L 356,567 C 262,823 215,952 215,954 215,979 228,992 255,992 264,992 276,990 289,987 310,991 331,999 354,1012 L 381,999 492,748 772,1049 836,1024 860,1049 C 881,1039 901,1025 922,1006 886,937 835,863 770,784 769,783 710,716 594,584 L 774,223 C 774,196 753,168 711,139 L 727,119 C 717,90 699,76 672,76 641,76 570,178 457,381 L 164,-76 C 142,-110 111,-127 72,-127 30,-127 9,-110 8,-76 1,-67 -2,-52 -2,-32 -2,-23 -1,-13 0,-2 Z"/>
  </g>
  <g id="bullet-char-template-10004" transform="scale(0.00048828125,-0.00048828125)">
   <path d="M 285,-33 C 182,-33 111,30 74,156 52,228 41,333 41,471 41,549 55,616 82,672 116,743 169,778 240,778 293,778 328,747 346,684 L 369,508 C 377,444 397,411 428,410 L 1163,1116 C 1174,1127 1196,1133 1229,1133 1271,1133 1292,1118 1292,1087 L 1292,965 C 1292,929 1282,901 1262,881 L 442,47 C 390,-6 338,-33 285,-33 Z"/>
  </g>
  <g id="bullet-char-template-9679" transform="scale(0.00048828125,-0.00048828125)">
   <path d="M 813,0 C 632,0 489,54 383,161 276,268 223,411 223,592 223,773 276,916 383,1023 489,1130 632,1184 813,1184 992,1184 1136,1130 1245,1023 1353,916 1407,772 1407,592 1407,412 1353,268 1245,161 1136,54 992,0 813,0 Z"/>
  </g>
  <g id="bullet-char-template-8226" transform="scale(0.00048828125,-0.00048828125)">
   <path d="M 346,457 C 273,457 209,483 155,535 101,586 74,649 74,723 74,796 101,859 155,911 209,963 273,989 346,989 419,989 480,963 531,910 582,859 608,796 608,723 608,648 583,586 532,535 482,483 420,457 346,457 Z"/>
  </g>
  <g id="bullet-char-template-8211" transform="scale(0.00048828125,-0.00048828125)">
   <path d="M -4,459 L 1135,459 1135,606 -4,606 -4,459 Z"/>
  </g>
  <g id="bullet-char-template-61548" transform="scale(0.00048828125,-0.00048828125)">
   <path d="M 173,740 C 173,903 231,1043 346,1159 462,1274 601,1332 765,1332 928,1332 1067,1274 1183,1159 1299,1043 1357,903 1357,740 1357,577 1299,437 1183,322 1067,206 928,148 765,148 601,148 462,206 346,322 231,437 173,577 173,740 Z"/>
  </g>
 </defs>
 <g>
  <g id="id2" class="Master_Slide">
   <g id="bg-id2" class="Background"/>
   <g id="bo-id2" class="BackgroundObjects"/>
  </g>
 </g>
 <g class="SlideGroup">
  <g>
   <g id="container-id1">
    <g id="id1" class="Slide" clip-path="url(#presentation_clip_path)">
     <g class="Page">
      <g class="com.sun.star.drawing.CustomShape">
       <g id="id3">
        <rect class="BoundingBox" stroke="none" fill="none" x="3999" y="4999" width="3004" height="3004"/>
        <path fill="rgb(255,255,255)" stroke="none" d="M 7001,6501 C 7001,6764 6932,7023 6800,7251 6668,7479 6479,7668 6251,7800 6023,7932 5764,8001 5501,8001 5237,8001 4978,7932 4750,7800 4522,7668 4333,7479 4201,7251 4069,7023 4000,6764 4000,6501 4000,6237 4069,5978 4201,5750 4333,5522 4522,5333 4750,5201 4978,5069 5237,5000 5500,5000 5764,5000 6023,5069 6251,5201 6479,5333 6668,5522 6800,5750 6932,5978 7001,6237 7001,6500 L 7001,6501 Z"/>
        <path fill="none" stroke="rgb(0,0,0)" d="M 7001,6501 C 7001,6764 6932,7023 6800,7251 6668,7479 6479,7668 6251,7800 6023,7932 5764,8001 5501,8001 5237,8001 4978,7932 4750,7800 4522,7668 4333,7479 4201,7251 4069,7023 4000,6764 4000,6501 4000,6237 4069,5978 4201,5750 4333,5522 4522,5333 4750,5201 4978,5069 5237,5000 5500,5000 5764,5000 6023,5069 6251,5201 6479,5333 6668,5522 6800,5750 6932,5978 7001,6237 7001,6500 L 7001,6501 Z"/>
       </g>
      </g>
      <g class="com.sun.star.drawing.CustomShape">
       <g id="id4">
        <rect class="BoundingBox" stroke="none" fill="none" x="4199" y="5199" width="2604" height="2604"/>
        <path fill="rgb(255,255,255)" stroke="none" d="M 6801,6501 C 6801,6729 6741,6953 6627,7151 6513,7348 6348,7513 6151,7627 5953,7741 5729,7801 5501,7801 5272,7801 5048,7741 4850,7627 4653,7513 4488,7348 4374,7151 4260,6953 4200,6729 4200,6501 4200,6272 4260,6048 4374,5850 4488,5653 4653,5488 4850,5374 5048,5260 5272,5200 5500,5200 5729,5200 5953,5260 6151,5374 6348,5488 6513,5653 6627,5850 6741,6048 6801,6272 6801,6500 L 6801,6501 Z"/>
        <path fill="none" stroke="rgb(0,0,0)" d="M 6801,6501 C 6801,6729 6741,6953 6627,7151 6513,7348 6348,7513 6151,7627 5953,7741 5729,7801 5501,7801 5272,7801 5048,7741 4850,7627 4653,7513 4488,7348 4374,7151 4260,6953 4200,6729 4200,6501 4200,6272 4260,6048 4374,5850 4488,5653 4653,5488 4850,5374 5048,5260 5272,5200 5500,5200 5729,5200 5953,5260 6151,5374 6348,5488 6513,5653 6627,5850 6741,6048 6801,6272 6801,6500 L 6801,6501 Z"/>
       </g>
      </g>
      <g class="com.sun.star.drawing.CustomShape">
       <g id="id5">
        <rect class="BoundingBox" stroke="none" fill="none" x="5399" y="6399" width="204" height="204"/>
        <path fill="rgb(0,0,0)" stroke="none" d="M 5601,6500 C 5601,6518 5596,6535 5588,6551 5579,6566 5566,6579 5551,6588 5535,6596 5518,6601 5501,6601 5483,6601 5466,6596 5450,6588 5435,6579 5422,6566 5413,6551 5405,6535 5400,6518 5400,6500 5400,6483 5405,6466 5413,6450 5422,6435 5435,6422 5450,6413 5466,6405 5483,6400 5501,6400 5518,6400 5535,6405 5551,6413 5566,6422 5579,6435 5588,6450 5596,6466 5601,6483 5601,6500 L 5601,6500 Z"/>
        <path fill="none" stroke="rgb(0,0,0)" d="M 5601,6500 C 5601,6518 5596,6535 5588,6551 5579,6566 5566,6579 5551,6588 5535,6596 5518,6601 5501,6601 5483,6601 5466,6596 5450,6588 5435,6579 5422,6566 5413,6551 5405,6535 5400,6518 5400,6500 5400,6483 5405,6466 5413,6450 5422,6435 5435,6422 5450,6413 5466,6405 5483,6400 5501,6400 5518,6400 5535,6405 5551,6413 5566,6422 5579,6435 5588,6450 5596,6466 5601,6483 5601,6500 Z"/>
       </g>
      </g>
     </g>
    </g>
   </g>
  </g>
 </g>
</svg>